<?xml version="1.0" encoding="utf-8"?>
<!-- Generator: Adobe Illustrator 27.1.0, SVG Export Plug-In . SVG Version: 6.00 Build 0)  -->
<svg version="1.1" id="Layer_1" xmlns="http://www.w3.org/2000/svg" xmlns:xlink="http://www.w3.org/1999/xlink" x="0px" y="0px"
	 viewBox="0 0 721.5 253.2" style="enable-background:new 0 0 721.5 253.2;" xml:space="preserve">
<style type="text/css">
	.st0{fill:#82C781;}
</style>
<g id="XMLID_68_">
	<path id="XMLID_85_" class="st0" d="M173.7,129.3c5.6-15,11.9-21.4,20.9-21.4c7.1,0,12.7,5.3,12.7,12.2c0,6.7-4.8,11.8-10.8,11.8
		c-2.4,0-4.9-0.8-6.6-2.4c-1.1-1-1.1-1-4.1-4.9c-1.5-2-2.8-2.8-4.2-2.8c-1.8,0-3.2,1-4.3,2.9c-2.1,3.8-2.5,7.1-2.5,19.6v17.5
		c0,14.3,1.3,16.1,11.1,16.5v1.4h-47.1v-1.4c9.9-0.4,11.2-2.2,11.2-16.5v-23c0-8.4-0.6-11.8-2.8-14.7c-2-2.7-4.5-3.8-9.1-4.1
		l-0.3-1.4c15-3.5,19.8-4.9,35.9-10.8V129.3z"/>
	<path id="XMLID_87_" class="st0" d="M292.3,170.3c-9.7,8-16.2,11.2-23.3,11.2c-7.8,0-12.3-4.2-14.1-13.3
		c-6.7,9.4-14.1,13.3-25.2,13.3c-11.8,0-19.9-6.3-19.9-15.4c0-8,4.9-12.7,19.3-19.1c7-2.9,15.7-6,25.8-9v-7.3
		c0-9.2-0.6-13.6-1.8-15.8c-1.5-2.4-3.6-3.5-6.4-3.5c-4.1,0-7.8,2.1-9.5,5.6c-1.3,2.5-1.4,3.4-2.5,12.2c-1.1,8.8-6.9,14.4-14.8,14.4
		c-5.7,0-9.8-4.1-9.8-9.8c0-5.7,3.8-10.6,12-15.4c10.6-6,27.5-10.6,39.5-10.6c5.6,0,9.5,1.1,12.7,3.9c4.1,3.2,5.5,7.4,5.5,15.4v32.2
		c0,5.3,0.1,7.1,1,8.8c0.7,1.8,2.8,2.9,5.2,2.9c1.7,0,2.9-0.4,5.6-1.8L292.3,170.3z M254.9,139.8c-12.7,4.1-16.5,8.5-16.5,19.2
		c0,8.4,2.8,13,8.1,13c5.2,0,8.4-4.1,8.4-10.5V139.8z"/>
	<path id="XMLID_92_" class="st0" d="M420.9,109.7l-3.5,6.6h-14.1v40.3c0,10.6,3.4,14.8,11.6,14.8c2.7,0,4.6-0.4,8-1.5l0.8,1.1
		c-10.4,7.6-17.4,10.5-25.1,10.5c-5.5,0-10.4-1.7-13.9-4.5c-4.6-3.9-6.3-8.8-6.3-18.9v-41.9h-17.2c16.4-7.1,32.5-20.7,42-35v28.4
		H420.9z"/>
	<path id="XMLID_94_" class="st0" d="M424.2,118.6c12.9-2.9,29-7.7,37-10.8v53.9c0,14.1,1.1,16.1,10.2,16.5v1.4h-45.4v-1.4
		c9.2-0.4,10.4-2.2,10.4-16.5v-23c0-8.4-0.6-11.6-2.8-14.7c-2-2.7-4.5-3.8-9.2-4.1L424.2,118.6z M462.1,88.6c0,8-6.7,14.7-14.8,14.7
		c-8.3,0-15-6.7-15-15c0-8.1,6.7-14.8,14.8-14.8C455.5,73.5,462.1,80.1,462.1,88.6z"/>
	<path id="XMLID_100_" class="st0" d="M593.2,121.1c9.5-9.8,16.2-13.3,25.5-13.3c6.3,0,11.6,2.1,14.3,5.9c2.4,3.1,3.2,7.1,3.2,14.6
		v36.3c-0.1,11.5,0.8,13,8.4,13.7v1.4h-39.6v-1.4c3.2-0.3,4.8-1.3,5.6-3.4c0.7-1.8,0.8-3.2,0.8-10.4v-26.5c0-11.2-0.3-13.7-1.5-16.1
		c-1-2.1-3.6-3.5-6.2-3.5c-3.4,0-6.7,1.5-10.5,4.9v41.2c-0.1,11.3,0.7,13,6.4,13.7v1.4h-42.4v-1.4c9.9-0.4,11.2-2.2,11.2-16.5v-23
		c0-8.4-0.6-11.8-2.8-14.7c-2-2.7-4.5-3.8-9.1-4.1l-0.3-1.4c12.7-2.8,23.4-6,37-10.8V121.1z"/>
	<path id="XMLID_104_" class="st0" d="M124.5,116.2l3.8-6.6h-15.4V98.7V91V78.2c-4.6,2.9-9.5,8.2-16.9,17.7l-16,20.3h8.1v45.5
		c0,14.3-1.3,16.1-11.2,16.5v1.4h48.7v-1.4c-11.5-0.1-12.7-1.8-12.7-16.5v-45.5H124.5z"/>
	<path id="XMLID_91_" class="st0" d="M362.3,154.1c-6.4,6.6-12.9,9.5-21,9.5c-14.6,0-24-10.9-24-27.7c0-12.3,4.7-22.4,11.2-25.3
		v-2.5c-20.1,1.8-35.4,17.7-35.4,37.7c0,20.7,15,35.7,35.6,35.7c15.7,0,27.3-8.7,35.3-26.6L362.3,154.1z"/>
	<path id="XMLID_126_" class="st0" d="M334.9,108v2c3.6,0.9,6.1,4,6.1,8.1c0,1.7-0.3,3.1-1.1,6c-1.1,3.5-1.4,5.2-1.4,7.1
		c0,7,4.9,12.2,11.8,12.2c6.6,0,11.5-5.3,11.5-12.5C361.8,118.7,350.1,109,334.9,108z"/>
	<path id="XMLID_152_" class="st0" d="M540.2,117.2c-6.7-5.6-14.2-8.6-22.8-9.2v2.3c1.9,0.7,3.4,2,4.6,3.9
		c2.5,4.1,3.9,14.7,3.9,30.8c0,13.9-1.3,24.9-3.2,29c-1.8,3.8-4.8,5.7-8.4,5.7c-3.4,0-6-1.5-7.8-4.5c-2.5-4.1-3.9-14.8-3.9-30.5
		c0-14.1,1.3-25.2,3.2-29.3c1.3-2.6,3.1-4.3,5.3-5.1V108c-20.2,1.5-35.6,16.9-35.6,36.7c0,20.7,16.9,36.8,38.7,36.8
		c21.7,0,38.8-16.1,38.8-36.3C553,133.5,548.9,124.5,540.2,117.2z"/>
	<path id="XMLID_151_" class="st0" d="M124.4,75.2c-1.9,0-3.6,0.1-5.2,0.5v1.6c0.5-0.1,1-0.1,1.5-0.1c1.8,0,3.2,0.9,4.1,2.5
		c0.8,1.4,1.1,3.1,1.3,7.6c0.3,5.9,0.6,8.1,1.7,10.2c2,3.6,6,5.9,10.5,5.9c6.3,0,10.9-4.3,10.9-10.5C149.2,83,138.2,75.2,124.4,75.2
		z"/>
</g>
</svg>
